<svg data-v-423bf9ae="" xmlns="http://www.w3.org/2000/svg" viewBox="0 0 728 90" class="iconLeftSlogan"><!----><!----><!----><g data-v-423bf9ae="" id="ecd20497-0a36-4467-8f73-2fa2b950fc0f" fill="#000000" transform="matrix(5.459508284166465,0,0,5.459508284166465,102.62774687886798,-7.643311586877523)"><path d="M11.62 1.40L11.62 1.40Q11.93 1.40 12.14 1.61L12.14 1.61L12.14 1.61Q12.35 1.82 12.35 2.13L12.35 2.13L12.35 11.61L12.35 11.61Q12.35 11.91 12.13 12.12L12.13 12.12L12.13 12.12Q11.91 12.33 11.62 12.33L11.62 12.33L11.62 12.33Q11.31 12.33 11.10 12.12L11.10 12.12L11.10 12.12Q10.89 11.91 10.89 11.61L10.89 11.61L10.89 4.65L7.50 11.55L7.50 11.55Q7.27 11.91 6.87 11.91L6.87 11.91L6.87 11.91Q6.41 11.91 6.20 11.48L6.20 11.48L2.86 4.77L2.86 11.61L2.86 11.61Q2.86 11.91 2.65 12.12L2.65 12.12L2.65 12.12Q2.44 12.33 2.13 12.33L2.13 12.33L2.13 12.33Q1.82 12.33 1.61 12.12L1.61 12.12L1.61 12.12Q1.40 11.91 1.40 11.61L1.40 11.61L1.40 2.13L1.40 2.13Q1.40 1.82 1.61 1.61L1.61 1.61L1.61 1.61Q1.82 1.40 2.13 1.40L2.13 1.40L2.13 1.40Q2.55 1.40 2.77 1.79L2.77 1.79L6.93 10.12L10.98 1.79L10.98 1.79Q11.20 1.40 11.62 1.40L11.62 1.40ZM18.48 4.62L18.48 4.62Q19.59 4.62 20.46 5.12L20.46 5.12L20.46 5.12Q21.34 5.61 21.83 6.50L21.83 6.50L21.83 6.50Q22.33 7.38 22.33 8.51L22.33 8.51L22.33 8.51Q22.33 9.63 21.84 10.51L21.84 10.51L21.84 10.51Q21.35 11.40 20.48 11.89L20.48 11.89L20.48 11.89Q19.60 12.39 18.48 12.39L18.48 12.39L18.48 12.39Q17.36 12.39 16.48 11.89L16.48 11.89L16.48 11.89Q15.60 11.40 15.11 10.51L15.11 10.51L15.11 10.51Q14.62 9.63 14.62 8.51L14.62 8.51L14.62 8.51Q14.62 7.38 15.11 6.50L15.11 6.50L15.11 6.50Q15.60 5.61 16.48 5.12L16.48 5.12L16.48 5.12Q17.36 4.62 18.48 4.62L18.48 4.62ZM18.48 5.88L18.48 5.88Q17.77 5.88 17.20 6.22L17.20 6.22L17.20 6.22Q16.63 6.55 16.31 7.15L16.31 7.15L16.31 7.15Q15.99 7.76 15.99 8.51L15.99 8.51L15.99 8.51Q15.99 9.27 16.31 9.86L16.31 9.86L16.31 9.86Q16.63 10.46 17.20 10.79L17.20 10.79L17.20 10.79Q17.77 11.13 18.48 11.13L18.48 11.13L18.48 11.13Q19.19 11.13 19.76 10.79L19.76 10.79L19.76 10.79Q20.33 10.46 20.64 9.86L20.64 9.86L20.64 9.86Q20.96 9.27 20.96 8.51L20.96 8.51L20.96 8.51Q20.96 7.76 20.64 7.15L20.64 7.15L20.64 7.15Q20.33 6.55 19.76 6.22L19.76 6.22L19.76 6.22Q19.19 5.88 18.48 5.88L18.48 5.88ZM28.27 4.61L28.27 4.61Q29.23 4.61 30.00 5.03L30.00 5.03L30.00 5.03Q30.77 5.45 31.21 6.25L31.21 6.25L31.21 6.25Q31.64 7.06 31.64 8.19L31.64 8.19L31.64 11.63L31.64 11.63Q31.64 11.94 31.44 12.14L31.44 12.14L31.44 12.14Q31.23 12.35 30.93 12.35L30.93 12.35L30.93 12.35Q30.62 12.35 30.41 12.14L30.41 12.14L30.41 12.14Q30.21 11.94 30.21 11.63L30.21 11.63L30.21 8.19L30.21 8.19Q30.21 7.06 29.60 6.47L29.60 6.47L29.60 6.47Q28.99 5.89 27.99 5.89L27.99 5.89L27.99 5.89Q27.40 5.89 26.91 6.13L26.91 6.13L26.91 6.13Q26.43 6.37 26.16 6.78L26.16 6.78L26.16 6.78Q25.89 7.18 25.89 7.69L25.89 7.69L25.89 11.63L25.89 11.63Q25.89 11.94 25.69 12.14L25.69 12.14L25.69 12.14Q25.49 12.35 25.17 12.35L25.17 12.35L25.17 12.35Q24.86 12.35 24.66 12.14L24.66 12.14L24.66 12.14Q24.46 11.94 24.46 11.63L24.46 11.63L24.46 2.11L24.46 2.11Q24.46 1.79 24.66 1.60L24.66 1.60L24.66 1.60Q24.86 1.40 25.17 1.40L25.17 1.40L25.17 1.40Q25.49 1.40 25.69 1.60L25.69 1.60L25.69 1.60Q25.89 1.79 25.89 2.11L25.89 2.11L25.89 5.54L25.89 5.54Q26.33 5.10 26.95 4.85L26.95 4.85L26.95 4.85Q27.57 4.61 28.27 4.61L28.27 4.61ZM37.49 4.62L37.49 4.62Q38.57 4.62 39.45 5.13L39.45 5.13L39.45 5.13Q40.32 5.64 40.83 6.53L40.83 6.53L40.83 6.53Q41.34 7.42 41.34 8.51L41.34 8.51L41.34 11.63L41.34 11.63Q41.34 11.94 41.14 12.14L41.14 12.14L41.14 12.14Q40.94 12.35 40.63 12.35L40.63 12.35L40.63 12.35Q40.32 12.35 40.12 12.14L40.12 12.14L40.12 12.14Q39.91 11.94 39.91 11.63L39.91 11.63L39.91 11.12L39.91 11.12Q39.42 11.72 38.72 12.05L38.72 12.05L38.72 12.05Q38.02 12.39 37.21 12.39L37.21 12.39L37.21 12.39Q36.20 12.39 35.38 11.89L35.38 11.89L35.38 11.89Q34.57 11.38 34.10 10.49L34.10 10.49L34.10 10.49Q33.63 9.60 33.63 8.51L33.63 8.51L33.63 8.51Q33.63 7.42 34.13 6.53L34.13 6.53L34.13 6.53Q34.64 5.64 35.52 5.13L35.52 5.13L35.52 5.13Q36.41 4.62 37.49 4.62L37.49 4.62ZM37.49 11.13L37.49 11.13Q38.19 11.13 38.76 10.79L38.76 10.79L38.76 10.79Q39.33 10.44 39.65 9.85L39.65 9.85L39.65 9.85Q39.97 9.25 39.97 8.51L39.97 8.51L39.97 8.51Q39.97 7.77 39.65 7.17L39.65 7.17L39.65 7.17Q39.33 6.57 38.76 6.22L38.76 6.22L38.76 6.22Q38.19 5.88 37.49 5.88L37.49 5.88L37.49 5.88Q36.79 5.88 36.22 6.22L36.22 6.22L36.22 6.22Q35.66 6.57 35.33 7.17L35.33 7.17L35.33 7.17Q35 7.77 35 8.51L35 8.51L35 8.51Q35 9.25 35.33 9.85L35.33 9.85L35.33 9.85Q35.66 10.44 36.22 10.79L36.22 10.79L36.22 10.79Q36.79 11.13 37.49 11.13L37.49 11.13ZM51.52 4.61L51.52 4.61Q52.74 4.61 53.49 5.40L53.49 5.40L53.49 5.40Q54.24 6.20 54.24 7.63L54.24 7.63L54.24 11.63L54.24 11.63Q54.24 11.94 54.04 12.14L54.04 12.14L54.04 12.14Q53.84 12.35 53.52 12.35L53.52 12.35L53.52 12.35Q53.21 12.35 53.01 12.14L53.01 12.14L53.01 12.14Q52.81 11.94 52.81 11.63L52.81 11.63L52.81 7.63L52.81 7.63Q52.81 6.78 52.38 6.33L52.38 6.33L52.38 6.33Q51.95 5.89 51.24 5.89L51.24 5.89L51.24 5.89Q50.51 5.89 50.04 6.40L50.04 6.40L50.04 6.40Q49.57 6.90 49.57 7.69L49.57 7.69L49.57 11.63L49.57 11.63Q49.57 11.94 49.38 12.14L49.38 12.14L49.38 12.14Q49.18 12.35 48.86 12.35L48.86 12.35L48.86 12.35Q48.55 12.35 48.35 12.14L48.35 12.14L48.35 12.14Q48.15 11.94 48.15 11.63L48.15 11.63L48.15 7.63L48.15 7.63Q48.15 6.78 47.72 6.33L47.72 6.33L47.72 6.33Q47.29 5.89 46.58 5.89L46.58 5.89L46.58 5.89Q45.84 5.89 45.37 6.40L45.37 6.40L45.37 6.40Q44.90 6.90 44.90 7.69L44.90 7.69L44.90 11.63L44.90 11.63Q44.90 11.94 44.70 12.14L44.70 12.14L44.70 12.14Q44.51 12.35 44.18 12.35L44.18 12.35L44.18 12.35Q43.88 12.35 43.67 12.14L43.67 12.14L43.67 12.14Q43.47 11.94 43.47 11.63L43.47 11.63L43.47 5.40L43.47 5.40Q43.47 5.08 43.67 4.89L43.67 4.89L43.67 4.89Q43.88 4.69 44.18 4.69L44.18 4.69L44.18 4.69Q44.49 4.69 44.69 4.88L44.69 4.88L44.69 4.88Q44.88 5.07 44.90 5.38L44.90 5.38L44.90 5.38Q45.26 5.01 45.77 4.81L45.77 4.81L45.77 4.81Q46.27 4.61 46.86 4.61L46.86 4.61L46.86 4.61Q47.57 4.61 48.14 4.89L48.14 4.89L48.14 4.89Q48.71 5.18 49.07 5.71L49.07 5.71L49.07 5.71Q49.49 5.19 50.12 4.90L50.12 4.90L50.12 4.90Q50.75 4.61 51.52 4.61L51.52 4.61ZM63.48 8.39L63.48 8.39Q63.48 8.65 63.29 8.83L63.29 8.83L63.29 8.83Q63.11 9.00 62.83 9.00L62.83 9.00L57.51 9.00L57.51 9.00Q57.67 9.98 58.40 10.58L58.40 10.58L58.40 10.58Q59.14 11.19 60.20 11.19L60.20 11.19L60.20 11.19Q60.62 11.19 61.08 11.03L61.08 11.03L61.08 11.03Q61.53 10.88 61.82 10.65L61.82 10.65L61.82 10.65Q62.02 10.50 62.29 10.50L62.29 10.50L62.29 10.50Q62.55 10.50 62.71 10.64L62.71 10.64L62.71 10.64Q62.96 10.85 62.96 11.12L62.96 11.12L62.96 11.12Q62.96 11.37 62.73 11.54L62.73 11.54L62.73 11.54Q62.26 11.91 61.55 12.15L61.55 12.15L61.55 12.15Q60.84 12.39 60.20 12.39L60.20 12.39L60.20 12.39Q59.05 12.39 58.14 11.89L58.14 11.89L58.14 11.89Q57.23 11.40 56.72 10.51L56.72 10.51L56.72 10.51Q56.21 9.63 56.21 8.51L56.21 8.51L56.21 8.51Q56.21 7.39 56.69 6.50L56.69 6.50L56.69 6.50Q57.18 5.61 58.04 5.12L58.04 5.12L58.04 5.12Q58.90 4.62 59.99 4.62L59.99 4.62L59.99 4.62Q61.07 4.62 61.85 5.10L61.85 5.10L61.85 5.10Q62.64 5.57 63.06 6.43L63.06 6.43L63.06 6.43Q63.48 7.28 63.48 8.39L63.48 8.39ZM59.99 5.82L59.99 5.82Q58.97 5.82 58.33 6.38L58.33 6.38L58.33 6.38Q57.69 6.94 57.53 7.88L57.53 7.88L62.19 7.88L62.19 7.88Q62.06 6.94 61.49 6.38L61.49 6.38L61.49 6.38Q60.91 5.82 59.99 5.82L59.99 5.82ZM71.90 1.40L71.90 1.40Q72.23 1.40 72.42 1.60L72.42 1.60L72.42 1.60Q72.62 1.79 72.62 2.11L72.62 2.11L72.62 8.50L72.62 8.50Q72.62 9.59 72.11 10.48L72.11 10.48L72.11 10.48Q71.60 11.37 70.72 11.88L70.72 11.88L70.72 11.88Q69.85 12.39 68.77 12.39L68.77 12.39L68.77 12.39Q67.69 12.39 66.80 11.88L66.80 11.88L66.80 11.88Q65.91 11.37 65.41 10.48L65.41 10.48L65.41 10.48Q64.90 9.59 64.90 8.50L64.90 8.50L64.90 8.50Q64.90 7.41 65.37 6.52L65.37 6.52L65.37 6.52Q65.84 5.63 66.66 5.12L66.66 5.12L66.66 5.12Q67.48 4.62 68.49 4.62L68.49 4.62L68.49 4.62Q69.30 4.62 70 4.96L70 4.96L70 4.96Q70.70 5.29 71.19 5.89L71.19 5.89L71.19 2.11L71.19 2.11Q71.19 1.79 71.39 1.60L71.39 1.60L71.39 1.60Q71.60 1.40 71.90 1.40L71.90 1.40ZM68.77 11.13L68.77 11.13Q69.47 11.13 70.03 10.79L70.03 10.79L70.03 10.79Q70.60 10.44 70.92 9.84L70.92 9.84L70.92 9.84Q71.25 9.24 71.25 8.50L71.25 8.50L71.25 8.50Q71.25 7.76 70.92 7.16L70.92 7.16L70.92 7.16Q70.60 6.57 70.03 6.22L70.03 6.22L70.03 6.22Q69.47 5.88 68.77 5.88L68.77 5.88L68.77 5.88Q68.07 5.88 67.50 6.22L67.50 6.22L67.50 6.22Q66.93 6.57 66.61 7.16L66.61 7.16L66.61 7.16Q66.28 7.76 66.28 8.50L66.28 8.50L66.28 8.50Q66.28 9.24 66.61 9.84L66.61 9.84L66.61 9.84Q66.93 10.44 67.50 10.79L67.50 10.79L67.50 10.79Q68.07 11.13 68.77 11.13L68.77 11.13ZM83.97 6.15L83.97 6.15Q84.28 6.15 84.48 6.33L84.48 6.33L84.48 6.33Q84.69 6.52 84.69 6.82L84.69 6.82L84.69 6.82Q84.69 7.11 84.48 7.30L84.48 7.30L84.48 7.30Q84.28 7.49 83.97 7.49L83.97 7.49L79.95 7.49L79.95 11.61L79.95 11.61Q79.95 11.91 79.74 12.12L79.74 12.12L79.74 12.12Q79.53 12.33 79.23 12.33L79.23 12.33L79.23 12.33Q78.92 12.33 78.71 12.12L78.71 12.12L78.71 12.12Q78.50 11.91 78.50 11.61L78.50 11.61L78.50 2.13L78.50 2.13Q78.50 1.81 78.71 1.60L78.71 1.60L78.71 1.60Q78.92 1.40 79.23 1.40L79.23 1.40L85.55 1.40L85.55 1.40Q85.88 1.40 86.07 1.59L86.07 1.59L86.07 1.59Q86.27 1.78 86.27 2.09L86.27 2.09L86.27 2.09Q86.27 2.38 86.07 2.56L86.07 2.56L86.07 2.56Q85.88 2.74 85.55 2.74L85.55 2.74L79.95 2.74L79.95 6.15L83.97 6.15ZM91.46 4.62L91.46 4.62Q92.54 4.62 93.42 5.13L93.42 5.13L93.42 5.13Q94.29 5.64 94.80 6.53L94.80 6.53L94.80 6.53Q95.31 7.42 95.31 8.51L95.31 8.51L95.31 11.63L95.31 11.63Q95.31 11.94 95.11 12.14L95.11 12.14L95.11 12.14Q94.91 12.35 94.60 12.35L94.60 12.35L94.60 12.35Q94.29 12.35 94.09 12.14L94.09 12.14L94.09 12.14Q93.88 11.94 93.88 11.63L93.88 11.63L93.88 11.12L93.88 11.12Q93.39 11.72 92.69 12.05L92.69 12.05L92.69 12.05Q91.99 12.39 91.18 12.39L91.18 12.39L91.18 12.39Q90.17 12.39 89.36 11.89L89.36 11.89L89.36 11.89Q88.54 11.38 88.07 10.49L88.07 10.49L88.07 10.49Q87.60 9.60 87.60 8.51L87.60 8.51L87.60 8.51Q87.60 7.42 88.10 6.53L88.10 6.53L88.10 6.53Q88.61 5.64 89.50 5.13L89.50 5.13L89.50 5.13Q90.38 4.62 91.46 4.62L91.46 4.62ZM91.46 11.13L91.46 11.13Q92.16 11.13 92.73 10.79L92.73 10.79L92.73 10.79Q93.30 10.44 93.62 9.85L93.62 9.85L93.62 9.85Q93.94 9.25 93.94 8.51L93.94 8.51L93.94 8.51Q93.94 7.77 93.62 7.17L93.62 7.17L93.62 7.17Q93.30 6.57 92.73 6.22L92.73 6.22L92.73 6.22Q92.16 5.88 91.46 5.88L91.46 5.88L91.46 5.88Q90.76 5.88 90.20 6.22L90.20 6.22L90.20 6.22Q89.63 6.57 89.30 7.17L89.30 7.17L89.30 7.17Q88.97 7.77 88.97 8.51L88.97 8.51L88.97 8.51Q88.97 9.25 89.30 9.85L89.30 9.85L89.30 9.85Q89.63 10.44 90.20 10.79L90.20 10.79L90.20 10.79Q90.76 11.13 91.46 11.13L91.46 11.13ZM100.70 10.93L100.70 10.93Q100.95 10.93 101.13 11.13L101.13 11.13L101.13 11.13Q101.30 11.33 101.30 11.63L101.30 11.63L101.30 11.63Q101.30 11.94 101.07 12.14L101.07 12.14L101.07 12.14Q100.84 12.33 100.48 12.33L100.48 12.33L100.23 12.33L100.23 12.33Q99.54 12.33 98.97 11.98L98.97 11.98L98.97 11.98Q98.41 11.62 98.08 11.00L98.08 11.00L98.08 11.00Q97.76 10.39 97.76 9.62L97.76 9.62L97.76 6.16L97.12 6.16L97.12 6.16Q96.82 6.16 96.64 5.99L96.64 5.99L96.64 5.99Q96.46 5.82 96.46 5.57L96.46 5.57L96.46 5.57Q96.46 5.29 96.64 5.12L96.64 5.12L96.64 5.12Q96.82 4.96 97.12 4.96L97.12 4.96L97.76 4.96L97.76 2.94L97.76 2.94Q97.76 2.63 97.96 2.44L97.96 2.44L97.96 2.44Q98.15 2.24 98.46 2.24L98.46 2.24L98.46 2.24Q98.77 2.24 98.97 2.44L98.97 2.44L98.97 2.44Q99.16 2.63 99.16 2.94L99.16 2.94L99.16 4.96L100.35 4.96L100.35 4.96Q100.65 4.96 100.83 5.12L100.83 5.12L100.83 5.12Q101.01 5.29 101.01 5.57L101.01 5.57L101.01 5.57Q101.01 5.82 100.83 5.99L100.83 5.99L100.83 5.99Q100.65 6.16 100.35 6.16L100.35 6.16L99.16 6.16L99.16 9.62L99.16 9.62Q99.16 10.18 99.47 10.56L99.47 10.56L99.47 10.56Q99.78 10.93 100.23 10.93L100.23 10.93L100.70 10.93ZM106.86 4.61L106.86 4.61Q107.83 4.61 108.60 5.03L108.60 5.03L108.60 5.03Q109.37 5.45 109.80 6.25L109.80 6.25L109.80 6.25Q110.24 7.06 110.24 8.19L110.24 8.19L110.24 11.63L110.24 11.63Q110.24 11.94 110.03 12.14L110.03 12.14L110.03 12.14Q109.83 12.35 109.52 12.35L109.52 12.35L109.52 12.35Q109.21 12.35 109.01 12.14L109.01 12.14L109.01 12.14Q108.81 11.94 108.81 11.63L108.81 11.63L108.81 8.19L108.81 8.19Q108.81 7.06 108.20 6.47L108.20 6.47L108.20 6.47Q107.59 5.89 106.58 5.89L106.58 5.89L106.58 5.89Q105.99 5.89 105.51 6.13L105.51 6.13L105.51 6.13Q105.03 6.37 104.76 6.78L104.76 6.78L104.76 6.78Q104.48 7.18 104.48 7.69L104.48 7.69L104.48 11.63L104.48 11.63Q104.48 11.94 104.29 12.14L104.29 12.14L104.29 12.14Q104.09 12.35 103.77 12.35L103.77 12.35L103.77 12.35Q103.46 12.35 103.26 12.14L103.26 12.14L103.26 12.14Q103.05 11.94 103.05 11.63L103.05 11.63L103.05 2.11L103.05 2.11Q103.05 1.79 103.26 1.60L103.26 1.60L103.26 1.60Q103.46 1.40 103.77 1.40L103.77 1.40L103.77 1.40Q104.09 1.40 104.29 1.60L104.29 1.60L104.29 1.60Q104.48 1.79 104.48 2.11L104.48 2.11L104.48 5.54L104.48 5.54Q104.93 5.10 105.55 4.85L105.55 4.85L105.55 4.85Q106.16 4.61 106.86 4.61L106.86 4.61ZM112.76 5.39L112.76 5.39Q112.76 5.07 112.96 4.87L112.96 4.87L112.96 4.87Q113.16 4.68 113.47 4.68L113.47 4.68L113.47 4.68Q113.79 4.68 113.99 4.87L113.99 4.87L113.99 4.87Q114.18 5.07 114.18 5.39L114.18 5.39L114.18 11.62L114.18 11.62Q114.18 11.93 113.99 12.13L113.99 12.13L113.99 12.13Q113.79 12.33 113.47 12.33L113.47 12.33L113.47 12.33Q113.16 12.33 112.96 12.13L112.96 12.13L112.96 12.13Q112.76 11.93 112.76 11.62L112.76 11.62L112.76 5.39ZM113.47 1.58L113.47 1.58Q113.85 1.58 114.12 1.85L114.12 1.85L114.12 1.85Q114.39 2.13 114.39 2.51L114.39 2.51L114.39 2.51Q114.39 2.88 114.12 3.16L114.12 3.16L114.12 3.16Q113.85 3.43 113.47 3.43L113.47 3.43L113.47 3.43Q113.09 3.43 112.82 3.16L112.82 3.16L112.82 3.16Q112.55 2.88 112.55 2.51L112.55 2.51L112.55 2.51Q112.55 2.13 112.82 1.85L112.82 1.85L112.82 1.85Q113.09 1.58 113.47 1.58L113.47 1.58Z"></path></g><defs data-v-423bf9ae=""><linearGradient data-v-423bf9ae="" gradientTransform="rotate(25)" id="d26f9c57-64d1-4877-8623-57790a48695e" x1="0%" y1="0%" x2="100%" y2="0%"><stop data-v-423bf9ae="" offset="0%" style="stop-color: rgb(78, 26, 112); stop-opacity: 1;"></stop><stop data-v-423bf9ae="" offset="100%" style="stop-color: rgb(43, 76, 242); stop-opacity: 1;"></stop></linearGradient></defs><g data-v-423bf9ae="" id="9378789d-d1a9-4d6b-879a-356190763b6e" transform="matrix(1.6732666947518926,0,0,1.6732666947518926,-7.5186955692949695,-8.438372925343735)" stroke="none" fill="url(#d26f9c57-64d1-4877-8623-57790a48695e)"><path d="M20.089 31H31v-2.485c-1.248-.421-2.154-1.588-2.154-2.976s.906-2.555 2.154-2.976v-2.018a57.346 57.346 0 0 1-9.516-1.047c-.827 3.481-1.325 7.391-1.395 11.502z"></path><circle cx="32" cy="25.539" r="1.154"></circle><path d="M31 18.544V5.107c-3.733.741-7.037 5.576-9.009 12.457 2.827.553 5.865.889 9.009.98zM21.553 44.795A58.495 58.495 0 0 1 31 43.94V33H20.089c.072 4.226.595 8.24 1.464 11.795zM39.075 46.404a3.144 3.144 0 0 1-2.768 1.673 3.15 3.15 0 0 1-2.965-2.12l-.343-.007v12.943c3.659-.728 6.907-5.383 8.891-12.046a51.573 51.573 0 0 0-2.815-.443zM45.911 33c-.069 4.462-.601 8.637-1.5 12.334 3.369.785 6.414 1.875 8.905 3.207A26.844 26.844 0 0 0 58.974 33H45.911zM44.583 19.379c.797 3.517 1.263 7.445 1.328 11.621h13.063a26.841 26.841 0 0 0-5.078-14.769c-2.65 1.343-5.819 2.412-9.313 3.148zM42.078 17.806C40.115 10.796 36.777 5.857 33 5.107v13.458a56.948 56.948 0 0 0 9.078-.759zM44.096 17.442c3.197-.668 6.091-1.63 8.541-2.826a27.031 27.031 0 0 0-14.734-8.958c2.618 2.496 4.779 6.612 6.193 11.784zM31 58.894V45.939a56.721 56.721 0 0 0-8.925.79C24.056 53.455 27.32 58.162 31 58.894z"></path><circle cx="12.993" cy="32" r="1.531"></circle><path d="M20.055 47.107c-3.09.662-5.893 1.597-8.277 2.754a27 27 0 0 0 14.315 8.479c-2.526-2.406-4.624-6.319-6.038-11.233zM9.623 31c.435-1.458 1.772-2.531 3.37-2.531 1.656 0 3.04 1.15 3.419 2.691a.967.967 0 0 1 .51-.16h1.166c.067-4.304.562-8.343 1.405-11.941-3.402-.826-6.459-1.971-8.971-3.396A26.852 26.852 0 0 0 5.025 31h4.598zM43.898 47.267c-1.413 4.839-3.493 8.692-5.99 11.074a27.015 27.015 0 0 0 14.101-8.232c-2.287-1.173-5.057-2.136-8.111-2.842zM43.911 33H33v10.951c.107.002.215.003.321.006.411-1.265 1.587-2.188 2.986-2.188a3.15 3.15 0 0 1 3.104 2.663c1.021.134 2.023.292 3.005.479.888-3.583 1.423-7.639 1.495-11.911zM42.572 19.746a58.674 58.674 0 0 1-9.572.819v1.998c1.248.421 2.154 1.588 2.154 2.976s-.906 2.555-2.154 2.976V31h10.911c-.068-4.014-.546-7.835-1.339-11.254z"></path><circle cx="36.308" cy="44.923" r="1.154"></circle><path d="M18.089 33h-1.166a.967.967 0 0 1-.51-.16 3.529 3.529 0 0 1-3.419 2.691c-1.598 0-2.936-1.073-3.37-2.531H5.025a26.846 26.846 0 0 0 5.443 15.269c2.59-1.312 5.68-2.359 9.081-3.094-.875-3.657-1.392-7.777-1.46-12.175zM19.991 17.126c1.415-5.024 3.54-9.022 6.105-11.468a27.008 27.008 0 0 0-14.272 8.426c2.307 1.265 5.076 2.293 8.167 3.042z"></path></g><!----><g data-v-423bf9ae="" id="030edaa2-3cec-4189-b165-125ccb1bad20" fill="#000000" transform="matrix(3.681980660947296,0,0,3.681980660947296,106.11042242940817,52.26784238920129)"><path d="M7.83 3.22L7.83 2.21L1.13 2.21L1.13 11.48L2.18 11.48L2.18 7.46L7.21 7.46L7.21 6.44L2.18 6.44L2.18 3.22ZM17.35 7.92L20.57 7.92L22.81 11.48L24.05 11.48L21.62 7.74C22.65 7.50 23.86 6.90 23.86 5.11C23.86 3.35 22.64 2.21 20.73 2.21L16.30 2.21L16.30 11.48L17.35 11.48ZM17.35 3.21L20.61 3.21C21.92 3.21 22.81 3.93 22.81 5.11C22.81 6.55 21.55 6.93 20.55 6.93L17.35 6.93ZM39.48 3.22L39.48 2.21L32.66 2.21L32.66 11.48L39.48 11.48L39.48 10.47L33.71 10.47L33.71 7.35L38.86 7.35L38.86 6.33L33.71 6.33L33.71 3.22ZM54.99 3.22L54.99 2.21L48.17 2.21L48.17 11.48L54.99 11.48L54.99 10.47L49.22 10.47L49.22 7.35L54.38 7.35L54.38 6.33L49.22 6.33L49.22 3.22ZM63.69 2.21L63.69 11.48L69.79 11.48L69.79 10.47L64.74 10.47L64.74 2.21ZM82.31 2.21L80.99 2.21L77.06 11.48L78.22 11.48L79.35 8.79L83.94 8.79L85.08 11.48L86.24 11.48ZM79.76 7.83L81.65 3.30L83.54 7.83ZM101.36 2.21L101.36 10.01L95.63 2.21L94.42 2.21L94.42 11.48L95.47 11.48L95.47 3.65L101.19 11.48L102.41 11.48L102.41 2.21ZM115.65 10.57C113.40 10.57 112.14 8.93 112.14 6.85C112.14 4.76 113.40 3.12 115.65 3.12C117.18 3.12 118.19 3.85 118.66 4.98L119.77 4.98C119.18 3.29 117.67 2.10 115.57 2.10C112.78 2.10 111.09 4.21 111.09 6.85C111.09 9.48 112.78 11.59 115.57 11.59C117.67 11.59 119.18 10.40 119.77 8.71L118.66 8.71C118.19 9.84 117.18 10.57 115.65 10.57ZM135.16 3.22L135.16 2.21L128.34 2.21L128.34 11.48L135.16 11.48L135.16 10.47L129.39 10.47L129.39 7.35L134.54 7.35L134.54 6.33L129.39 6.33L129.39 3.22Z"></path></g></svg>